<svg width="17" height="16" viewBox="0 0 17 16" fill="none" xmlns="http://www.w3.org/2000/svg">
<path d="M3.44458 3H15.5562C16.0574 3 16.4452 3.43932 16.3831 3.93669L15.7581 8.93667C15.7059 9.35375 15.3514 9.66667 14.9312 9.66667H12.7964H6.87051H5.66681" stroke="white" stroke-linejoin="round"/>
<path d="M0.66626 1.33252H2.52761C2.90441 1.33252 3.23433 1.58536 3.33229 1.94921L5.91689 11.5492C6.01485 11.913 6.34478 12.1659 6.72158 12.1659H14.8329" stroke="white" stroke-linecap="round" stroke-linejoin="round"/>
<path d="M7.33333 15.4992C7.79357 15.4992 8.16667 15.1261 8.16667 14.6659C8.16667 14.2056 7.79357 13.8325 7.33333 13.8325C6.8731 13.8325 6.5 14.2056 6.5 14.6659C6.5 15.1261 6.8731 15.4992 7.33333 15.4992Z" stroke="white" stroke-linejoin="round"/>
<path d="M13.5833 15.4992C14.0436 15.4992 14.4167 15.1261 14.4167 14.6659C14.4167 14.2056 14.0436 13.8325 13.5833 13.8325C13.1231 13.8325 12.75 14.2056 12.75 14.6659C12.75 15.1261 13.1231 15.4992 13.5833 15.4992Z" stroke="white" stroke-linejoin="round"/>
</svg>
