<svg width="115" height="60" viewBox="0 0 115 60" fill="none" xmlns="http://www.w3.org/2000/svg">
<path d="M2.21125 59.7924C1.69569 59.7924 1.3348 59.7406 1.12858 59.6368C0.973913 59.4811 0.819246 59.2995 0.66458 59.0919C0.509912 58.8843 0.432579 58.7027 0.432579 58.547C0.53569 56.3157 1.23169 53.773 2.52058 50.9189C3.80947 48.0649 5.5108 45.0811 7.62458 41.9676C9.6868 38.8541 11.9037 35.8703 14.2752 33.0162C16.389 30.4216 17.8584 28.4757 18.6832 27.1784C19.3535 26.0368 20.1268 24.3762 21.0032 22.1968C21.9312 19.9654 22.9624 17.2411 24.0966 14.0238C24.1997 13.7124 24.5864 13.5049 25.2566 13.4011C26.0815 13.4011 26.4939 14.0238 26.4939 15.2692C26.4939 15.9438 26.4166 16.4368 26.2619 16.7481C26.2104 17.0076 26.133 17.267 26.0299 17.5265C25.9784 17.7341 25.9268 17.8897 25.8752 17.9935C25.7206 18.3049 25.6432 18.5124 25.6432 18.6162C25.6432 18.6162 25.669 18.6941 25.7206 18.8497C25.7721 19.0054 25.8237 19.213 25.8752 19.4724C27.5766 18.6422 29.0717 17.9935 30.3606 17.5265C31.6495 17.0076 32.8868 16.7481 34.0726 16.7481C35.4646 16.7481 36.4184 17.2151 36.9339 18.1492C37.0886 18.4605 37.1659 18.8497 37.1659 19.3168C37.1659 20.4584 36.7277 21.9114 35.8512 23.6757C34.9748 25.3881 33.8406 27.1784 32.4486 29.0465C31.1081 30.8627 29.6388 32.4973 28.0406 33.9503C27.4735 34.4692 26.6486 35.04 25.5659 35.6627C24.5348 36.2854 23.4006 36.8562 22.1632 37.3751C20.9775 37.946 19.8175 38.413 18.6832 38.7762C17.6006 39.1395 16.7499 39.3211 16.1312 39.3211C15.461 40.7222 14.7908 42.0714 14.1206 43.3687C13.4504 44.7178 12.7544 46.0151 12.0326 47.2606C8.73302 53.1762 5.79436 57.3016 3.21658 59.6368C3.11347 59.7406 2.77836 59.7924 2.21125 59.7924ZM17.7552 35.9741C20.1784 35.5589 22.7561 34.4951 25.4886 32.7827C28.221 31.0703 30.4895 29.0205 32.2939 26.6335C34.0984 24.2465 34.9232 21.8595 34.7686 19.4724C34.4592 18.5384 33.8148 18.0714 32.8352 18.0714C32.165 18.0714 31.3144 18.3049 30.2832 18.7719C29.3037 19.2389 28.2984 19.8357 27.2672 20.5622C26.2361 21.2887 25.3081 22.0151 24.4832 22.7416C23.7099 23.4681 23.1686 24.0908 22.8592 24.6097C22.6015 24.973 22.2921 25.6216 21.9312 26.5557C21.725 26.9708 21.5704 27.3341 21.4672 27.6454C21.3641 27.9568 21.2868 28.1643 21.2352 28.2681C20.9775 28.9427 20.6681 29.6951 20.3072 30.5254C19.9464 31.3038 19.5597 32.1341 19.1472 33.0162L17.7552 35.9741ZM3.13925 55.2C3.13925 55.4076 3.1908 55.5114 3.29391 55.5114C3.55169 55.5114 4.01569 55.1222 4.68591 54.3438C5.76858 53.2022 6.59347 52.1643 7.16058 51.2303C8.19169 49.5697 9.17125 47.9092 10.0992 46.2487C10.9757 44.5881 11.8264 42.9276 12.6512 41.267C14.3526 37.946 15.0744 35.9222 14.8166 35.1957C14.0432 35.9741 13.141 37.0897 12.1099 38.5427C11.0272 40.0476 9.94458 41.7081 8.86191 43.5243C7.72769 45.3405 6.69658 47.1308 5.76858 48.8951C4.78902 50.7114 4.04147 52.32 3.52591 53.7211C3.26814 54.6032 3.13925 55.0962 3.13925 55.2ZM38.982 38.1535C37.8994 38.1535 36.9456 37.8681 36.1207 37.2973C34.7803 36.2595 34.11 34.7027 34.11 32.627C34.11 30.5514 34.8318 28.346 36.2754 26.0108C37.7189 23.6757 39.91 21.5222 42.8487 19.5503C43.3643 19.187 44.0603 19.0054 44.9367 19.0054C46.0709 19.0054 47.0763 19.3168 47.9527 19.9395C48.8807 20.5622 49.2416 21.3665 49.0354 22.3524C48.6745 23.9611 47.8754 25.3881 46.638 26.6335C45.4523 27.8789 44.0345 28.9946 42.3847 29.9806C40.7865 30.9146 39.1367 31.8227 37.4354 32.7049C37.3838 32.8605 37.3323 33.0162 37.2807 33.1719C37.2807 33.3276 37.2807 33.4832 37.2807 33.6389C37.2807 34.3654 37.5127 35.0141 37.9767 35.5849C38.4923 36.1038 39.1883 36.3633 40.0647 36.3633C40.7349 36.3633 41.302 36.2595 41.766 36.0519C42.5909 35.7406 43.2612 35.4551 43.7767 35.1957C44.3438 34.9362 44.9883 34.547 45.71 34.0281C46.4318 33.5092 47.4114 32.7308 48.6487 31.693C49.2158 31.2778 49.5509 31.0703 49.654 31.0703C49.9634 31.0703 50.0665 31.3038 49.9634 31.7708C49.4478 32.6011 48.5456 33.5092 47.2567 34.4951C46.0194 35.4811 44.6274 36.3373 43.0807 37.0638C41.5856 37.7903 40.2194 38.1535 38.982 38.1535ZM37.8994 30.6033C38.3118 30.6033 39.1625 30.1881 40.4514 29.3578C41.7403 28.5276 42.9518 27.6195 44.086 26.6335C46.0452 24.8173 47.0247 23.4162 47.0247 22.4303C47.0247 22.1708 46.9474 21.9373 46.7927 21.7297C46.638 21.4703 46.406 21.3405 46.0967 21.3405C45.1172 21.3405 43.4674 22.5081 41.1474 24.8433C39.5492 26.4 38.4665 28.32 37.8994 30.6033ZM50.6781 44.5362C50.4204 44.5362 50.2915 44.3027 50.2915 43.8357C50.2915 43.7319 50.2915 43.5762 50.2915 43.3687C50.343 43.213 50.3946 43.0314 50.4461 42.8238L53.7715 34.4173L57.7155 24.6097C57.0968 24.5578 56.1946 24.5838 55.0088 24.6876C53.823 24.7395 52.8177 24.8433 51.9928 24.9989C51.6835 25.0508 51.4257 25.1027 51.2195 25.1546C51.0648 25.1546 50.9359 25.1546 50.8328 25.1546C50.4204 25.1546 50.1368 24.973 49.9821 24.6097C50.0337 24.2984 50.3173 24.013 50.8328 23.7535C51.0906 23.6497 51.3999 23.5719 51.7608 23.52C52.1217 23.4162 52.5599 23.3124 53.0755 23.2087C53.6426 23.1049 54.1324 23.027 54.5448 22.9751C55.0088 22.9233 55.3439 22.8714 55.5501 22.8195C55.8079 22.7676 56.0657 22.7157 56.3235 22.6638C56.5813 22.6119 56.8906 22.56 57.2515 22.5081C57.5608 22.4562 57.8959 22.4043 58.2568 22.3524C58.6177 22.3005 59.0044 22.2227 59.4168 22.1189C59.8293 21.5481 60.4479 20.5362 61.2728 19.0833C62.0977 17.6303 63.1546 15.7103 64.4435 13.3232C65.4746 11.4032 66.2995 9.89839 66.9181 8.80866C67.5884 7.66703 68.0524 6.9146 68.3101 6.55136C68.7741 5.92866 69.3155 5.6173 69.9341 5.6173C70.2435 5.6173 70.3981 5.74703 70.3981 6.00649C70.3981 6.05839 70.2692 6.39568 70.0115 7.01839C69.7021 7.5373 69.1866 8.4973 68.4648 9.89839C67.743 11.2995 66.9697 12.8303 66.1448 14.4908C65.3199 16.1514 64.5724 17.7081 63.9021 19.1611C63.2319 20.6141 62.7679 21.6778 62.5101 22.3524C62.7679 22.3005 63.0515 22.2746 63.3608 22.2746C63.7217 22.2746 64.1599 22.2746 64.6755 22.2746C65.2426 22.2746 65.7581 22.3005 66.2221 22.3524C66.7377 22.3524 67.1759 22.3784 67.5368 22.4303C68.2586 22.586 68.6195 22.7935 68.6195 23.053C68.6195 23.1568 68.3875 23.3384 67.9235 23.5978C67.6657 23.7016 67.1759 23.8054 66.4541 23.9092C65.7324 24.013 64.7786 24.1168 63.5928 24.2205C63.2835 24.2205 62.9484 24.2465 62.5875 24.2984C62.2266 24.2984 61.8399 24.3243 61.4275 24.3762C59.8808 26.9189 57.767 31.1481 55.0861 37.0638C54.1066 39.0357 53.359 40.5665 52.8435 41.6562C52.3279 42.746 52.0186 43.3946 51.9155 43.6022C51.4515 44.2249 51.039 44.5362 50.6781 44.5362ZM77.7562 39.3989C77.6531 39.3989 77.55 39.373 77.4469 39.3211C77.3438 39.3211 77.2407 39.2951 77.1376 39.2433C76.4158 38.88 75.9518 38.3611 75.7456 37.6865C75.5394 37.0119 75.4878 36.1557 75.5909 35.1178C75.694 34.7027 75.7971 33.9762 75.9003 32.9384C76.0549 31.9006 76.2354 31.0703 76.4416 30.4476L72.4976 34.2616L70.3322 36.3633C68.8371 37.8681 67.5998 38.6206 66.6202 38.6206C66.2078 38.6206 65.8727 38.4649 65.6149 38.1535C65.1509 37.5827 64.9189 36.8822 64.9189 36.0519C64.9189 34.9622 65.2025 33.7946 65.7696 32.5492C66.3367 31.3038 67.0069 30.1103 67.7803 28.9687C68.5536 27.7751 69.2496 26.7892 69.8682 26.0108C71.4149 24.0908 72.91 22.586 74.3536 21.4962C75.8487 20.4065 77.3954 19.8616 78.9936 19.8616C79.87 19.8616 80.7207 20.0173 81.5456 20.3287C82.422 20.64 83.2211 21.1589 83.9429 21.8854L84.0202 21.9633C84.0202 22.1189 83.8914 22.2746 83.6336 22.4303C83.5305 22.5341 83.4274 22.6119 83.3242 22.6638C83.2727 22.7157 83.2211 22.7676 83.1696 22.8195C82.5509 23.4422 81.8549 24.48 81.0816 25.933C80.3083 27.386 79.638 28.9168 79.0709 30.5254C78.5038 32.0822 78.2202 33.4314 78.2202 34.573C78.2202 35.6108 78.478 36.3114 78.9936 36.6746C79.2514 36.8303 79.5349 36.9081 79.8442 36.9081C80.5145 36.9081 81.4425 36.493 82.6282 35.6627C82.6798 35.6108 82.7829 35.533 82.9376 35.4292C83.1438 35.2735 83.4274 35.066 83.7882 34.8065C84.2007 34.4951 84.5358 34.3395 84.7936 34.3395C85.0514 34.3395 85.1802 34.4433 85.1802 34.6508C85.1802 34.9622 84.974 35.3254 84.5616 35.7406C84.2523 36 83.8914 36.2854 83.4789 36.5968C83.118 36.9081 82.6798 37.2195 82.1642 37.5308C81.3909 38.1016 80.5918 38.5427 79.7669 38.8541C78.942 39.2173 78.2718 39.3989 77.7562 39.3989ZM69.0176 34.4173C70.1002 34.4173 72.1109 32.8087 75.0496 29.5914C75.8229 28.7092 76.5189 27.8789 77.1376 27.1005C77.7562 26.2703 78.3233 25.466 78.8389 24.6876C79.7669 23.1827 80.0762 22.1449 79.7669 21.5741C79.6123 21.2627 79.3029 21.107 78.8389 21.107C78.2718 21.107 77.4985 21.4184 76.5189 22.0411C75.5394 22.6119 74.534 23.3643 73.5029 24.2984C72.5234 25.2324 71.6211 26.1665 70.7962 27.1005C70.2291 27.827 69.662 28.8389 69.0949 30.1362C68.5278 31.4335 68.2442 32.4973 68.2442 33.3276C68.2442 34.0541 68.502 34.4173 69.0176 34.4173ZM88.3501 42.4346C87.783 42.4346 87.2932 42.253 86.8808 41.8897C86.5199 41.5265 86.3652 41.0854 86.4168 40.5665C86.5199 38.4389 86.9066 36.3892 87.5768 34.4173C88.2986 32.4454 89.3297 30.0843 90.6701 27.3341C90.8248 26.9708 90.9537 26.6595 91.0568 26.4C91.2114 26.0887 91.3403 25.8292 91.4434 25.6216C92.5777 23.1827 93.7377 20.8476 94.9234 18.6162C96.1092 16.3849 97.295 14.2054 98.4808 12.0778L99.5634 10.1319C100.801 7.90055 101.883 6.11028 102.811 4.76109C103.739 3.36001 104.667 2.34812 105.595 1.72541C106.781 0.998926 107.503 0.635681 107.761 0.635681C108.173 0.635681 108.586 0.998926 108.998 1.72541C109.256 2.24433 108.74 3.51568 107.451 5.53947C106.781 6.5773 105.931 7.8746 104.899 9.43136C103.92 10.9881 102.734 12.7524 101.342 14.7243C101.084 15.0876 100.646 15.7362 100.027 16.6703C99.4603 17.5524 98.687 18.72 97.7074 20.173C96.7279 21.626 95.8772 22.9492 95.1554 24.1427C94.4337 25.2843 93.8408 26.2962 93.3768 27.1784C92.4488 28.8908 91.5723 30.733 90.7474 32.7049C89.9226 34.6249 89.5101 36.1297 89.5101 37.2195C89.5101 38.2054 89.8968 38.6984 90.6701 38.6984C91.9074 38.6984 93.8923 37.6346 96.6248 35.507C96.9341 35.5589 97.0888 35.7146 97.0888 35.9741C97.0888 36.1816 96.831 36.5449 96.3154 37.0638C95.8514 37.5308 95.2585 38.0238 94.5368 38.5427C93.8665 39.1135 93.0674 39.7622 92.1394 40.4887L90.9021 41.4227C90.0772 42.0973 89.2266 42.4346 88.3501 42.4346ZM98.0401 40.5665C97.2152 40.5665 96.4935 40.4887 95.8748 40.333C95.3077 40.1773 95.0241 39.9697 95.0241 39.7103C95.0241 39.2951 95.4366 39.0616 96.2615 39.0097C97.0348 38.9578 97.5504 38.88 97.8081 38.7762C98.2721 38.6724 98.8135 38.5946 99.4321 38.5427C99.9992 38.4389 100.463 38.3611 100.824 38.3092C103.299 37.5827 104.536 36.467 104.536 34.9622C104.536 33.9243 103.995 32.6011 102.912 30.9924C102.242 30.0065 101.907 28.9168 101.907 27.7233C101.907 26.2703 102.345 24.8433 103.221 23.4422C104.149 22.0411 105.284 20.8216 106.624 19.7838C108.016 18.6941 109.408 17.9676 110.8 17.6043C111.419 17.4487 112.063 17.3708 112.733 17.3708C113.816 17.3708 114.589 17.6303 115.053 18.1492C115.363 18.4605 115.517 19.1351 115.517 20.173C115.517 20.9514 115.389 21.7557 115.131 22.586C114.873 23.3643 114.512 24.013 114.048 24.5319C113.79 24.7914 113.584 24.9211 113.429 24.9211C113.172 24.9211 113.043 24.5578 113.043 23.8314L113.12 22.2746C113.172 21.8595 113.197 21.4962 113.197 21.1849C113.249 20.8735 113.275 20.6141 113.275 20.4065C113.275 19.5243 113.094 19.0054 112.733 18.8497C112.321 18.746 112.037 18.6941 111.883 18.6941C110.8 18.6941 109.64 19.187 108.403 20.173C107.165 21.1589 106.16 22.3005 105.387 23.5978C105.077 24.0649 104.923 24.6357 104.923 25.3103C104.923 26.1405 105.129 27.1265 105.541 28.2681C106.005 29.3578 106.341 30.1622 106.547 30.6811C107.062 31.8227 107.449 32.8087 107.707 33.6389C108.016 34.4692 108.171 35.1957 108.171 35.8184C108.171 36.1297 108.145 36.3633 108.093 36.5189C108.351 36.4151 108.97 36.2595 109.949 36.0519C110.826 35.8443 111.573 35.7406 112.192 35.7406C112.553 35.7406 112.733 35.8184 112.733 35.9741C112.733 36.026 112.579 36.2076 112.269 36.5189C112.115 36.6746 111.625 36.9341 110.8 37.2973C110.027 37.6087 109.099 37.946 108.016 38.3092C106.985 38.6724 105.954 39.0097 104.923 39.3211C103.892 39.6324 103.015 39.866 102.293 40.0216C101.056 40.3849 99.6384 40.5665 98.0401 40.5665Z" fill="white"/>
</svg>
